<svg
   xmlns="http://www.w3.org/2000/svg"
   width="109"
   height="117"
   id="svg2"
   version="1">
  <g
     transform="translate(0,-935)">
    <path
       style="fill:red"
       d="M 2,1051 C 1,1050 3e-15,1048 3e-15,1048 C 3e-15,1046 3,1043 5,1043 C 7,1043 7,1040 7,992 L 7,940 L 9,938 C 11,935 11,935 35,935 L 59,935 L 62,938 C 64,940 64,940 64,959 L 64,977 L 69,979 C 75,981 79,984 80,989 C 81,991 81,1000 81,1010 C 81,1024 81,1027 83,1029 C 86,1035 95,1036 100,1031 C 105,1026 105,1022 101,1006 C 99,998 98,987 97,980 C 96,962 91,951 82,943 C 78,940 77,939 79,937 C 82,934 96,947 102,958 L 106,966 L 104,968 C 101,970 101,970 102,980 C 103,992 104,994 107,1007 C 111,1024 109,1033 99,1037 C 94,1040 86,1040 82,1036 C 77,1032 76,1028 76,1010 C 76,996 76,992 74,989 C 73,986 67,982 65,983 C 64,983 64,997 64,1013 L 64,1043 L 66,1044 C 67,1044 69,1045 70,1046 C 71,1048 71,1049 69,1051 C 68,1052 65,1052 36,1052 C 6,1052 3,1052 2,1051 z M 55,978 C 57,976 57,974 57,961 C 57,950 57,945 56,945 C 55,944 49,943 35,943 C 16,943 15,943 14,945 C 13,946 13,954 13,961 C 13,973 13,976 15,978 C 16,979 18,979 35,979 C 51,979 54,979 55,978 z" />
  </g>
</svg>
