<?xml version="1.0" encoding="UTF-8" standalone="no"?>
<!-- Created with Inkscape (http://www.inkscape.org/) -->

<svg
   xmlns:dc="http://purl.org/dc/elements/1.1/"
   xmlns:cc="http://creativecommons.org/ns#"
   xmlns:rdf="http://www.w3.org/1999/02/22-rdf-syntax-ns#"
   xmlns:svg="http://www.w3.org/2000/svg"
   xmlns="http://www.w3.org/2000/svg"
   xmlns:sodipodi="http://sodipodi.sourceforge.net/DTD/sodipodi-0.dtd"
   xmlns:inkscape="http://www.inkscape.org/namespaces/inkscape"
   version="1.0"
   width="400"
   height="400"
   id="svg2"
   inkscape:version="0.47 r22583"
   sodipodi:docname="normal.svg">
  <metadata
     id="metadata10">
    <rdf:RDF>
      <cc:Work
         rdf:about="">
        <dc:format>image/svg+xml</dc:format>
        <dc:type
           rdf:resource="http://purl.org/dc/dcmitype/StillImage" />
        <dc:title />
      </cc:Work>
    </rdf:RDF>
  </metadata>
  <sodipodi:namedview
     pagecolor="#ffffff"
     bordercolor="#666666"
     borderopacity="1"
     objecttolerance="10"
     gridtolerance="10"
     guidetolerance="10"
     inkscape:pageopacity="0"
     inkscape:pageshadow="2"
     inkscape:window-width="1439"
     inkscape:window-height="825"
     id="namedview8"
     showgrid="false"
     inkscape:zoom="1.2401132"
     inkscape:cx="-69.356116"
     inkscape:cy="197.45763"
     inkscape:window-x="1"
     inkscape:window-y="24"
     inkscape:window-maximized="1"
     inkscape:current-layer="svg2" />
  <defs
     id="defs4">
    <inkscape:perspective
       sodipodi:type="inkscape:persp3d"
       inkscape:vp_x="0 : 200 : 1"
       inkscape:vp_y="0 : 1000 : 0"
       inkscape:vp_z="400 : 200 : 1"
       inkscape:persp3d-origin="200 : 133.33333 : 1"
       id="perspective12" />
    <inkscape:perspective
       id="perspective3599"
       inkscape:persp3d-origin="0.5 : 0.33333333 : 1"
       inkscape:vp_z="1 : 0.5 : 1"
       inkscape:vp_y="0 : 1000 : 0"
       inkscape:vp_x="0 : 0.5 : 1"
       sodipodi:type="inkscape:persp3d" />
    <inkscape:perspective
       id="perspective3621"
       inkscape:persp3d-origin="0.5 : 0.33333333 : 1"
       inkscape:vp_z="1 : 0.5 : 1"
       inkscape:vp_y="0 : 1000 : 0"
       inkscape:vp_x="0 : 0.5 : 1"
       sodipodi:type="inkscape:persp3d" />
  </defs>
  <g
     transform="translate(-147.06733,-109.44716)"
     id="g5"
     style="stroke:#000000;stroke-opacity:1;stroke-width:12;stroke-miterlimit:4;stroke-dasharray:none;fill:#ffffff;fill-opacity:1">
    <path
       d="M 157.98695,184.38488 L 173.37483,168.20017 C 182.38616,159.18884 197.56012,162.31477 197.56012,162.31477 L 242.58958,168.47612 L 265.39575,146.16045 C 277.41087,134.35989 288.26269,152.4142 283.54247,158.63631 L 271.83305,172.24635 L 320.32641,181.22794 L 336.78707,162.03882 C 354.38063,141.01237 367.47041,159.95529 359.53185,171.11218 L 348.89521,184.56906 L 421.75804,194.07153 C 484.40828,133.78139 509.98537,108.77262 526.46939,123.63021 C 543.05967,138.5836 513.71315,168.38877 456.64135,227.17701 L 467.00204,302.24678 L 482.26714,289.52597 C 491.27847,282.01653 507.27901,294.06392 490.75822,309.72648 L 469.76089,329.52825 L 478.61969,378.66527 L 491.73923,368.58052 C 503.32523,359.35463 517.39476,371.55518 501.7322,388.29052 L 480.88803,409.28786 C 480.02981,409.93153 487.69305,452.38631 487.69305,452.38631 C 492.41327,473.19821 480.67347,480.80195 480.67347,480.80195 L 466.35838,493.27782 L 411.97962,339.67439 C 407.47395,326.15738 396.0546,311.47862 376.97351,313.22076 C 366.8894,314.29354 341.41552,331.49026 337.98263,335.56682 L 279.00579,392.27531 C 277.5039,393.34809 288.07915,465.99635 288.07915,465.99635 C 288.07915,468.14191 269.38054,492.66454 269.38054,492.66454 L 232.01433,426.14725 L 213.56128,434.7301 L 224.35108,417.93211 L 157.06733,379.9526 L 182.29502,361.49956 C 194.31014,364.28878 257.3034,371.36975 258.59073,370.72608 C 258.59073,370.72608 309.88762,319.85344 312.81633,316.77643 C 329.76623,298.96831 335.46935,292.31456 338.04402,283.51778 C 340.6208,274.71377 336.23117,261.81195 309.62838,245.4769 C 272.93937,222.94855 157.98695,184.38488 157.98695,184.38488 z"
       id="path3166"
       style="fill:#ffffff;stroke:#000000;stroke-opacity:1;stroke-width:12;stroke-miterlimit:4;stroke-dasharray:none;fill-opacity:1" />
  </g>
  <rect
     style="fill:#ff0000;fill-opacity:1;fill-rule:evenodd;stroke:none"
     id="rect2817"
     width="485.43954"
     height="30.642365"
     x="40.12294"
     y="-15.321183"
     transform="matrix(0.70710678,0.70710678,-0.70710678,0.70710678,0,0)" />
  <rect
     style="fill:#ff0000;fill-opacity:1;fill-rule:evenodd;stroke:none"
     id="rect2817-7"
     width="485.43954"
     height="30.642365"
     x="-242.71977"
     y="267.52155"
     transform="matrix(0.70710678,-0.70710678,0.70710678,0.70710678,0,0)" />
</svg>
