<?xml version="1.0" encoding="UTF-8" standalone="no"?>
<svg
   xmlns:svg="http://www.w3.org/2000/svg"
   xmlns="http://www.w3.org/2000/svg"
   version="1.0">
  <g
     transform="translate(-45.162018,-364.48074)">
    <path
       d="M 56.542388,369.37523 L 55.477952,372.14277 L 52.721622,372.14277 L 53.113782,371.16797 L 51.489116,371.16797 L 50.783227,372.90468 L 53.080169,372.90468 L 52.419098,374.58537 L 50.13336,374.58537 L 49.360243,376.52376 L 50.335043,376.52376 L 50.122156,377.01677 C 49.756135,377.89072 49.057716,378.3277 48.026896,378.3277 L 44.587086,378.3277 L 46.458253,376.46774 L 48.732786,370.74219 L 47.511485,369.36403 L 56.542388,369.37523 M 59.500051,369.36403 L 56.519629,376.52376 L 57.494429,376.52376 L 57.281542,377.01677 C 56.915521,377.89072 56.217102,378.3277 55.186282,378.3277 L 52.340315,378.3277 L 53.86414,376.8599 L 56.295537,370.57412 L 55.354351,369.36403 L 59.500051,369.36403 M 66.173962,373.70021 L 64.807002,377.08399 C 64.478327,377.91313 63.708946,378.3277 62.498855,378.3277 L 59.260728,378.3277 L 58.442792,377.45374 C 58.711702,376.69183 59.133741,375.57884 59.708911,374.11478 C 60.037578,373.28564 60.806959,372.87107 62.017058,372.87107 L 65.322413,372.87107 L 66.173962,373.70021 M 63.675338,374.01393 L 62.252354,374.01393 L 61.042258,377.0952 L 62.465242,377.0952 L 63.675338,374.01393 M 79.607572,372.87107 C 78.980101,373.78238 77.967954,375.27259 76.571126,377.3417 C 76.122933,377.99903 75.446923,378.3277 74.543095,378.3277 L 71.641105,378.3277 L 72.403017,375.67221 L 71.260149,377.3417 C 70.81196,377.99903 70.13595,378.3277 69.232117,378.3277 L 67.562632,378.3277 L 66.464582,377.54338 L 67.62986,374.21562 L 66.912766,372.87107 L 70.475827,372.87107 L 68.99682,377.25206 L 71.786765,372.87107 L 75.674759,372.87107 L 74.195752,377.25206 L 76.985696,372.87107 L 79.607572,372.87107 M 87.071409,372.87107 L 86.376724,374.48453 L 84.158214,374.48453 L 84.371101,374.00273 L 82.925709,374.00273 L 82.499934,374.97753 L 85.110605,374.97753 L 86.05179,375.8739 L 85.569993,377.08399 C 85.241318,377.91313 84.471937,378.3277 83.261846,378.3277 L 78.544712,378.3277 L 79.273011,376.63581 L 81.850067,376.63581 L 81.614771,377.17363 L 83.004141,377.17363 L 83.485938,376.05317 L 80.886472,376.05317 L 79.70999,375.20162 L 80.337447,373.73382 C 80.442022,373.48732 80.707197,373.27817 81.132973,373.10636 C 81.536336,372.9495 81.96211,372.87107 82.410297,372.87107 L 87.071409,372.87107 M 94.866478,373.81225 L 93.645177,376.93833 C 93.286623,377.62555 92.760008,378.08867 92.065329,378.3277 L 89.163339,378.3277 L 88.860815,378.96636 L 89.82441,378.96636 L 89.67875,379.33612 C 89.34261,380.15778 88.644191,380.56862 87.583491,380.56862 L 84.928002,380.56862 L 86.23894,379.26889 L 88.367813,374.14839 L 87.33699,372.87107 L 93.880473,372.87107 L 94.866478,373.81225 M 92.278216,374.09237 L 90.765596,374.09237 L 89.622727,377.14002 L 91.090529,377.14002 C 91.112934,377.14749 91.508829,376.1316 92.278216,374.09237 M 103.23246,372.87107 L 101.79827,376.49015 L 102.69464,376.49015 L 102.48175,376.98315 C 102.09332,377.87952 101.40237,378.3277 100.4089,378.3277 L 95.904656,378.3277 L 95.041902,377.47615 L 96.431272,374.01393 C 96.573195,373.66286 96.83837,373.37901 97.226798,373.16238 C 97.570402,372.96818 97.91401,372.87107 98.25762,372.87107 L 103.23246,372.87107 M 100.36408,374.182 L 98.941101,374.182 L 97.753414,377.0952 L 99.120374,377.0952 L 100.36408,374.182 M 111.64396,372.87107 L 110.96048,374.49573 L 108.64113,374.49573 L 108.8316,374.02514 L 107.41983,374.02514 L 106.20973,377.0952 L 107.57669,377.0952 L 107.81199,376.51256 L 110.15375,376.51256 L 109.95206,376.98315 C 109.5711,377.87952 108.89136,378.3277 107.91283,378.3277 L 104.47302,378.3277 L 103.58785,377.47615 L 104.93241,374.01393 C 105.05939,373.69274 105.31336,373.4201 105.69432,373.196 C 106.05286,372.97938 106.39647,372.87107 106.72514,372.87107 L 111.64396,372.87107 M 119.14124,373.77864 L 118.21126,376.00835 L 114.51374,376.00835 L 114.08796,377.0952 L 115.45492,377.0952 L 115.69022,376.51256 L 118.03198,376.51256 L 117.8303,376.98315 C 117.44934,377.87952 116.76959,378.3277 115.79106,378.3277 L 112.35125,378.3277 L 111.46609,377.47615 L 112.79944,374.01393 C 112.94883,373.63298 113.214,373.33793 113.59496,373.12877 C 113.90869,372.95697 114.24483,372.87107 114.60338,372.87107 L 118.21126,372.87107 L 119.14124,373.77864 M 116.73225,374.03634 L 115.32047,374.03634 L 114.99554,374.86548 L 116.39611,374.86548 L 116.73225,374.03634"
       transform="matrix(7.7771931,0,0,8.8777387,-301.60036,-2914.6366)"
       style="fill:#ffffff" />
  </g>
</svg>
